<?xml version="1.0" encoding="utf-8"?>
<svg aria-hidden="true" focusable="false" data-prefix="fas" data-icon="crown" class="svg-inline--fa fa-crown fa-w-20" role="img" viewBox="0 0 640 512" xmlns="http://www.w3.org/2000/svg">
  <path d="M528 448H112c-8.8 0-16 7.2-16 16v32c0 8.8 7.2 16 16 16h416c8.8 0 16-7.2 16-16v-32c0-8.8-7.2-16-16-16zm64-320c-26.5 0-48 21.5-48 48 0 7.1 1.6 13.7 4.4 19.8L476 239.2c-15.4 9.2-35.3 4-44.2-11.6L350.3 85C361 76.2 368 63 368 48c0-26.5-21.5-48-48-48s-48 21.5-48 48c0 15 7 28.2 17.7 37l-81.5 142.6c-8.9 15.6-28.9 20.8-44.2 11.6l-72.3-43.4c2.7-6 4.4-12.7 4.4-19.8 0-26.5-21.5-48-48-48S0 149.5 0 176s21.5 48 48 48c2.6 0 5.2-.4 7.7-.8L128 416h384l72.3-192.8c2.5.4 5.1.8 7.7.8 26.5 0 48-21.5 48-48s-21.5-48-48-48z" fill="currentColor"/>
  <polygon style="stroke: rgb(0, 0, 0); fill: rgb(255, 255, 255);" points="60.13399887084961 223.5469970703125 130.20399475097656 409.10400390625 507.18701171875 411.3940124511719 579.5789794921875 224.1199951171875 552.3560180664062 197.77499389648438 446.58099365234375 261.91900634765625 343.2909851074219 84.9520034790039 295.79901123046875 85.5250015258789 194.4029998779297 259.62701416015625 88.44400024414062 200.0659942626953"/>
  <path style="stroke: none; fill: rgb(255, 255, 255);" d="M 156.921 243.591 C 181.866 249.065 195.564 252.292 216.483 224.119 C 248.082 210.685 226.169 257.114 203.958 270.8 C 182.594 283.964 133.866 280.583 156.921 243.591 Z"/>
  <path style="stroke: none; fill: rgb(255, 255, 255);" d="M 458.166 431.439 C 429.714 427.043 452.581 359.253 465.041 367.293 C 481.536 401.277 507.812 392.763 528.112 380.185 C 542.176 371.471 484.517 450.261 458.166 431.439 Z" transform="matrix(1, 0, 0, 1, -39.860075, -141.742521)"/>
</svg>